<?xml version="1.0" standalone="no"?>
<!DOCTYPE svg PUBLIC "-//W3C//DTD SVG 20010904//EN"
 "http://www.w3.org/TR/2001/REC-SVG-20010904/DTD/svg10.dtd">
<svg version="1.0" xmlns="http://www.w3.org/2000/svg"
 width="161.000000pt" height="167.000000pt" viewBox="0 0 161.000000 167.000000"
 preserveAspectRatio="xMidYMid meet">
<metadata>
Created by potrace 1.10, written by Peter Selinger 2001-2011
</metadata>
<g transform="translate(0.000000,167.000000) scale(0.100000,-0.100000)"
fill="#000000" stroke="none">
<path d="M550 1636 c-128 -38 -220 -90 -324 -183 -87 -78 -185 -218 -211 -302
-6 -20 -4 -23 10 -17 12 4 16 2 12 -8 -3 -7 1 -26 9 -41 8 -15 11 -31 8 -36
-3 -5 4 -29 15 -52 11 -24 25 -66 31 -95 9 -51 9 -54 -25 -98 -19 -25 -35 -49
-35 -54 0 -5 -3 -15 -6 -24 -13 -34 17 -14 31 21 16 39 52 83 67 83 17 0 7
-18 -12 -23 -21 -6 -63 -84 -53 -101 4 -5 1 -6 -7 -1 -10 6 -12 4 -7 -9 4 -10
1 -24 -8 -32 -8 -8 -11 -22 -8 -30 3 -9 0 -20 -7 -24 -8 -5 -10 -14 -5 -26 9
-20 12 -30 14 -52 0 -7 6 -10 12 -6 8 4 8 0 0 -15 -13 -23 -23 -29 -15 -7 3 7
-2 16 -10 19 -26 10 -19 -14 31 -101 65 -111 165 -219 266 -285 124 -81 306
-144 346 -118 9 6 -9 13 -55 22 l-68 14 42 8 c23 4 40 12 38 16 -3 5 7 13 22
20 24 10 25 10 9 -3 -22 -17 -22 -22 -1 -43 11 -11 45 -19 112 -24 54 -4 114
-11 134 -15 87 -15 307 82 422 185 134 121 220 245 266 384 13 42 6 83 -10 57
-5 -8 -7 -22 -5 -31 3 -8 -2 -24 -10 -35 -8 -10 -15 -14 -15 -7 0 6 5 15 10
18 6 4 7 11 4 17 -4 6 -10 5 -16 -3 -10 -14 -9 -14 7 51 l6 25 -14 -24 c-14
-24 -14 -23 -21 20 -4 24 -18 64 -31 89 l-25 45 25 -30 c14 -16 28 -42 32 -57
3 -16 9 -28 14 -28 15 0 11 15 -24 92 -46 99 -127 227 -205 323 -70 85 -189
205 -204 205 -5 0 -46 -10 -91 -21 -118 -31 -237 -31 -300 0 -63 31 -76 55
-46 87 52 56 242 169 325 194 37 11 45 10 106 -18 287 -130 468 -408 468 -719
0 -112 14 -138 24 -45 6 50 -5 143 -30 252 -5 23 -4 23 13 -5 l18 -30 3 26 c4
38 -39 149 -94 240 -121 201 -365 367 -563 384 -43 4 -50 3 -28 -4 16 -5 36
-16 45 -23 9 -7 13 -8 9 -2 -4 7 2 9 21 6 24 -5 24 -6 7 -13 -18 -7 -17 -8 5
-9 41 -1 3 -17 -60 -24 -60 -7 -137 -45 -132 -65 1 -7 -2 -10 -7 -6 -16 9 -63
-19 -135 -81 -57 -47 -66 -60 -66 -88 0 -18 9 -45 20 -59 27 -34 123 -81 155
-75 13 3 22 1 19 -3 -6 -11 31 -11 114 -3 34 4 59 10 57 14 -3 5 3 6 12 4 10
-3 42 2 72 10 l53 14 77 -77 c126 -125 262 -337 326 -509 l27 -73 -33 -82
c-18 -45 -32 -90 -31 -99 0 -9 -7 -23 -15 -30 -14 -11 -15 -11 -11 2 3 8 -4
25 -15 38 -11 12 -15 22 -9 22 6 0 16 -8 21 -18 9 -15 10 -15 11 -1 0 24 -164
247 -252 344 -16 17 -28 38 -28 48 0 32 -19 55 -50 62 -16 4 -32 11 -35 16 -8
12 -25 12 -25 -1 0 -5 7 -10 15 -10 8 0 15 -4 15 -10 0 -5 9 -19 21 -31 l21
-21 -7 21 c-8 25 1 28 13 4 6 -11 6 -28 0 -43 -7 -20 -11 -22 -19 -10 -8 13
-10 13 -18 1 -7 -12 -14 -10 -36 8 -33 25 -51 27 -59 4 -10 -26 11 -38 70 -38
l55 0 99 -124 c55 -69 122 -157 149 -197 l50 -72 -65 -71 c-36 -38 -73 -73
-84 -76 -44 -14 -344 216 -515 393 -69 72 -106 89 -113 51 -9 -47 517 -489
581 -489 19 0 4 20 -15 21 -13 0 -17 3 -10 6 10 4 9 9 -5 20 -17 13 -17 13 2
4 40 -21 55 -38 49 -55 -4 -11 -13 -14 -24 -11 -11 4 -51 -11 -98 -35 -90 -45
-121 -49 -148 -19 -19 22 -148 89 -170 89 -6 0 -17 14 -24 30 -17 42 -82 96
-138 114 -60 21 -72 20 -67 -4 2 -11 0 -18 -6 -15 -5 4 -9 2 -9 -2 0 -5 -12
-10 -27 -11 -30 -2 -29 1 9 20 l26 14 -17 45 c-9 24 -22 53 -28 64 -12 19 -14
19 -26 3 -12 -15 -14 -15 -25 3 -7 11 -8 19 -2 19 5 0 10 -5 10 -12 0 -9 3 -9
11 -1 8 8 5 17 -10 32 -31 31 -93 68 -128 75 -28 6 -33 13 -43 57 -16 66 -72
149 -124 181 -38 25 -42 31 -44 71 -2 62 -36 147 -72 184 -31 31 -31 32 -15
70 33 80 107 183 184 255 89 86 188 146 306 185 71 23 96 26 226 27 113 1 145
4 142 14 -3 6 -13 12 -22 12 -100 3 -271 0 -291 -6 -40 -11 -19 2 30 19 40 14
42 16 15 16 -16 0 -64 -10 -105 -23z m85 -299 c-7 -17 5 -32 43 -51 19 -10 32
-19 30 -22 -6 -6 -66 25 -74 38 -11 17 -13 59 -4 53 5 -3 7 -11 5 -18z m253
-107 c17 -9 -93 -1 -133 10 -18 5 -1 6 45 3 41 -3 81 -9 88 -13z m-693 -475
c41 -41 70 -96 80 -147 6 -34 4 -40 -30 -70 -39 -34 -77 -87 -89 -125 -6 -19
-4 -22 11 -17 14 5 15 4 4 -4 -17 -12 -8 -58 17 -85 15 -16 15 -17 -1 -11 -9
3 -17 10 -17 16 0 5 -5 6 -12 2 -6 -4 -8 -3 -5 3 4 5 -5 20 -19 32 -24 21 -74
118 -74 143 1 7 12 -9 25 -37 24 -49 64 -107 65 -93 0 5 -22 52 -50 105 -27
53 -50 107 -50 118 0 22 25 100 54 168 21 47 44 48 91 2z m213 -256 c35 -20
63 -46 83 -76 39 -63 38 -84 -8 -111 -21 -12 -60 -42 -88 -66 -27 -25 -55 -46
-62 -46 -6 0 -46 33 -88 74 l-77 74 37 59 c52 82 94 123 124 123 15 0 50 -14
79 -31z m236 -209 c14 -5 46 -28 71 -51 43 -40 57 -69 34 -69 -7 0 -46 -21
-88 -46 -74 -44 -77 -45 -116 -34 -22 7 -59 21 -82 32 -23 11 -47 17 -53 13
-6 -4 -9 -1 -8 7 2 7 -8 14 -22 16 -23 2 -23 1 -8 -11 10 -8 15 -17 11 -20 -9
-10 -25 -9 -19 1 3 5 -8 16 -25 26 -16 9 -29 22 -29 28 0 7 5 6 14 -1 12 -10
19 -8 36 9 12 12 24 19 28 16 3 -4 -3 -13 -14 -21 -10 -8 -14 -15 -8 -15 10 0
67 38 164 110 28 21 75 25 114 10z m248 -176 c21 -13 45 -24 53 -24 10 0 13
-5 9 -12 -6 -10 -4 -10 8 0 19 15 50 5 46 -16 -2 -10 -24 -20 -63 -28 -33 -6
-62 -10 -64 -8 -2 2 10 7 28 10 70 14 35 22 -78 17 -132 -6 -173 -1 -165 22 4
8 11 12 16 9 6 -4 13 -3 17 2 3 5 31 21 61 36 60 30 75 29 132 -8z"/>
<path d="M20 1050 c-12 -8 -15 -40 -16 -182 l-2 -173 9 145 c10 169 13 192 23
208 9 14 6 15 -14 2z"/>
<path d="M937 1003 c-9 -9 -8 -25 2 -42 8 -12 12 -13 25 -1 9 7 19 10 23 6 3
-3 1 -6 -5 -6 -17 0 -15 -25 2 -40 8 -6 16 -21 18 -32 2 -11 18 -29 35 -38 18
-10 40 -23 48 -30 21 -18 18 1 -5 28 -11 14 -24 20 -31 16 -8 -4 -9 -3 -5 4 4
7 1 12 -7 12 -17 0 -30 51 -16 65 6 5 9 5 9 -2 0 -7 14 -10 37 -8 24 2 32 0
22 -6 -11 -7 -10 -9 7 -9 11 0 25 -5 31 -11 8 -8 14 -5 23 11 17 31 -1 41 -72
38 -51 -2 -59 0 -78 25 -20 26 -49 35 -63 20z"/>
<path d="M502 865 l3 -98 28 -3 c27 -3 31 3 28 39 -2 13 6 17 36 17 53 0 83
23 83 64 0 50 -27 68 -110 74 l-71 5 3 -98z m46 45 c-10 -16 -10 -25 4 -48 16
-27 16 -29 -2 -45 -20 -16 -20 -15 -20 48 0 51 3 65 15 65 13 0 13 -3 3 -20z
m73 -20 c4 -14 7 -19 8 -12 1 7 5 11 10 7 5 -3 12 3 14 12 4 17 5 17 6 0 0
-10 -5 -20 -13 -23 -8 -3 -14 -11 -12 -17 1 -7 1 -9 -1 -4 -3 4 -20 7 -39 7
-29 0 -34 3 -34 23 0 30 9 39 34 35 12 -2 23 -14 27 -28z"/>
<path d="M720 861 l0 -99 31 2 c30 1 31 2 24 41 -4 22 -7 47 -8 56 -1 9 -7 15
-14 12 -15 -6 -17 6 -4 26 12 19 43 6 40 -16 -3 -31 1 -38 12 -23 8 12 9 10 4
-7 -6 -22 19 -73 36 -73 13 0 40 57 34 73 -6 14 30 67 46 67 5 0 9 -9 9 -20 0
-11 -6 -19 -12 -17 -9 1 -14 -17 -16 -58 l-3 -60 31 -1 30 -2 -1 57 c-1 72
-20 135 -42 139 -12 2 -24 -13 -44 -52 -15 -31 -30 -56 -33 -56 -4 0 -14 15
-23 34 -24 51 -49 76 -74 76 -22 0 -23 -3 -23 -99z"/>
</g>
</svg>
